<svg width="63" height="62" viewBox="0 0 63 62" fill="none" xmlns="http://www.w3.org/2000/svg">
<path d="M43.807 25.5931C45.4873 26.6555 47.0293 27.9224 48.3976 29.3647C50.6319 31.7263 52.3905 34.4962 53.5771 37.5229C54.4632 39.7782 55.0342 42.1497 55.2692 44.5677C55.4087 45.9885 54.2385 47.1458 52.8125 47.1458H10.1875C8.76148 47.1458 7.59123 45.9859 7.73073 44.5677C7.96581 42.1497 8.53673 39.7782 9.42281 37.5229C10.6098 34.4971 12.3683 31.7282 14.6024 29.3673C15.9705 27.9241 17.5125 26.6563 19.193 25.5931M43.807 25.5931C42.7977 24.9529 41.7406 24.3915 40.645 23.9139C37.7607 22.654 34.6474 22.0032 31.5 22.0023C28.3526 22.0032 25.2392 22.654 22.355 23.9139C21.2594 24.3915 20.2023 24.9529 19.193 25.5931M43.807 25.5931L48.2658 17.4375M19.193 25.5931L14.7341 17.4375" stroke="white" stroke-width="4" stroke-linecap="round" stroke-linejoin="round"/>
<path d="M23.1042 39.5586C24.8876 39.5586 26.3333 38.1128 26.3333 36.3294C26.3333 34.546 24.8876 33.1002 23.1042 33.1002C21.3207 33.1002 19.875 34.546 19.875 36.3294C19.875 38.1128 21.3207 39.5586 23.1042 39.5586Z" fill="white"/>
<path d="M39.8958 39.5586C41.6792 39.5586 43.125 38.1128 43.125 36.3294C43.125 34.546 41.6792 33.1002 39.8958 33.1002C38.1124 33.1002 36.6666 34.546 36.6666 36.3294C36.6666 38.1128 38.1124 39.5586 39.8958 39.5586Z" fill="white"/>
</svg>
