<svg width="39" height="39" viewBox="0 0 39 39" fill="none" xmlns="http://www.w3.org/2000/svg">
<path fill-rule="evenodd" clip-rule="evenodd" d="M34.0015 19.0938H29.6237C27.3097 19.0938 25.5921 20.8147 25.5921 22.75C25.5921 24.6854 27.3098 26.4063 29.6221 26.4063H34.0389C34.3736 26.3852 34.5183 26.1593 34.5296 26.0228V19.4773C34.5183 19.3408 34.3736 19.1149 34.0389 19.0954L34.0015 19.0938ZM33.8813 16.6563C33.9896 16.6552 34.0925 16.6574 34.19 16.6628C35.6038 16.7489 36.8566 17.8165 36.9623 19.3083C36.9688 19.4058 36.9688 19.5114 36.9688 19.6089V25.8912C36.9688 25.9887 36.9688 26.0943 36.9623 26.1918C36.8566 27.6835 35.6037 28.7512 34.1884 28.8389C34.092 28.8432 33.989 28.8449 33.8796 28.8438H29.6254C26.1398 28.8438 23.1562 26.1983 23.1562 22.75C23.1562 19.3018 26.1397 16.6563 29.6237 16.6563H33.8813Z" fill="#332F2E"/>
<path d="M30.875 22.75C30.875 23.181 30.7038 23.5943 30.399 23.899C30.0943 24.2038 29.681 24.375 29.25 24.375C28.819 24.375 28.4057 24.2038 28.101 23.899C27.7962 23.5943 27.625 23.181 27.625 22.75C27.625 22.319 27.7962 21.9057 28.101 21.601C28.4057 21.2962 28.819 21.125 29.25 21.125C29.681 21.125 30.0943 21.2962 30.399 21.601C30.7038 21.9057 30.875 22.319 30.875 22.75Z" fill="#332F2E"/>
<path fill-rule="evenodd" clip-rule="evenodd" d="M33.8813 16.6562C33.9896 16.6551 34.0925 16.6573 34.19 16.6627C34.5556 16.6839 34.9099 16.7716 35.2381 16.9162C35.0643 14.3065 34.5849 12.2947 33.0834 10.7916C31.8662 9.5761 30.3241 9.0366 28.4196 8.77985L28.3514 8.77173L28.2994 8.73435L22.2284 4.70923C21.1751 4.02257 19.9449 3.65698 18.6875 3.65698C17.4301 3.65698 16.1999 4.02257 15.1466 4.70923L9.07725 8.73435L9.02362 8.77173L8.95538 8.77985C7.05088 9.0366 5.50875 9.5761 4.29163 10.7916C3.07613 12.0087 2.53663 13.5509 2.27987 15.4554C2.03125 17.3079 2.03125 19.6722 2.03125 22.659V22.841C2.03125 25.8277 2.03125 28.1937 2.27987 30.0446C2.53663 31.9491 3.07613 33.4912 4.29163 34.7084C5.50875 35.9239 7.05088 36.4634 8.95538 36.7201C10.8079 36.9687 13.1723 36.9687 16.159 36.9687H21.216C24.2027 36.9687 26.5688 36.9687 28.4196 36.7201C30.3241 36.4634 31.8662 35.9239 33.0834 34.7084C34.5849 33.2052 35.0643 31.1935 35.2381 28.5821C34.9077 28.7294 34.5578 28.815 34.1884 28.8389C34.092 28.8432 33.989 28.8448 33.8796 28.8437H32.773C32.5877 31.0245 32.1701 32.175 31.3593 32.9842C30.6719 33.6716 29.7294 34.0844 28.0946 34.3037C26.4257 34.528 24.2239 34.5312 21.125 34.5312H16.25C13.1511 34.5312 10.9509 34.528 9.27875 34.3037C7.64563 34.0844 6.70312 33.6716 6.01575 32.9842C5.32837 32.2969 4.91563 31.3544 4.69625 29.7196C4.472 28.0507 4.46875 25.8489 4.46875 22.75C4.46875 19.6511 4.472 17.4509 4.69625 15.7787C4.91563 14.1456 5.32837 13.2031 6.01575 12.5157C6.70312 11.8284 7.64563 11.4156 9.28038 11.1962C10.9509 10.972 13.1511 10.9687 16.25 10.9687H21.125C24.2239 10.9687 26.4258 10.972 28.0963 11.1962C29.7294 11.4156 30.6719 11.8284 31.3593 12.5157C32.1701 13.325 32.5877 14.4771 32.773 16.6562H33.8813ZM16.159 8.53123H21.216C22.0556 8.53123 22.8464 8.53285 23.5885 8.5361L20.8813 6.74048C19.5813 5.87923 17.7937 5.87923 16.4937 6.74048L13.7849 8.5361C14.528 8.53177 15.3189 8.53015 16.1574 8.53123" fill="#332F2E"/>
<path d="M9.75 15.0312C9.42677 15.0312 9.11677 15.1597 8.88821 15.3882C8.65965 15.6168 8.53125 15.9268 8.53125 16.25C8.53125 16.5732 8.65965 16.8832 8.88821 17.1118C9.11677 17.3403 9.42677 17.4688 9.75 17.4688H16.25C16.5732 17.4688 16.8832 17.3403 17.1118 17.1118C17.3403 16.8832 17.4688 16.5732 17.4688 16.25C17.4688 15.9268 17.3403 15.6168 17.1118 15.3882C16.8832 15.1597 16.5732 15.0312 16.25 15.0312H9.75Z" fill="#332F2E"/>
<path d="M30.875 22.75C30.875 23.181 30.7038 23.5943 30.399 23.899C30.0943 24.2038 29.681 24.375 29.25 24.375C28.819 24.375 28.4057 24.2038 28.101 23.899C27.7962 23.5943 27.625 23.181 27.625 22.75C27.625 22.319 27.7962 21.9057 28.101 21.601C28.4057 21.2962 28.819 21.125 29.25 21.125C29.681 21.125 30.0943 21.2962 30.399 21.601C30.7038 21.9057 30.875 22.319 30.875 22.75Z" fill="#332F2E"/>
</svg>
