<svg width="130" height="36" viewBox="0 0 130 36" fill="none" xmlns="http://www.w3.org/2000/svg">
<path d="M2.95744 16.0474C-0.522453 11.3564 0.63751 4.31997 6.43733 1.97449C12.2372 -0.370993 15.717 4.31997 16.877 6.66544C18.037 4.31997 22.6768 -0.370993 28.4767 1.97449C34.2765 4.31997 34.2765 11.3564 30.7966 16.0474C27.3167 20.7383 16.877 30.1202 16.877 30.1202C16.877 30.1202 6.43733 20.7383 2.95744 16.0474Z" stroke="#FF695A" stroke-width="2" stroke-linecap="round" stroke-linejoin="round"/>
<path d="M46.6553 32.1662L45.1044 25.1783L45.5923 23.5403L47.6835 32.1662H46.6553ZM42.1419 31.3821L45.5923 23.5403L45.6795 25.492L42.4556 32.7064L42.1419 31.3821ZM42.4556 32.7064L39.284 25.492L39.3712 23.5403L42.7693 31.3821L42.4556 32.7064ZM37.28 32.1662L39.3712 23.5403L39.8591 25.1783L38.3256 32.1662H37.28Z" fill="#A59390"/>
<path d="M55.3061 24.9344L49.1721 32.7761L49.2592 31.3821L55.3932 23.5403L55.3061 24.9344ZM50.0782 24.1502V31.4866L49.1721 32.7761V24.1502H50.0782ZM55.3932 23.5403V32.1662H54.4871V24.8298L55.3932 23.5403Z" fill="#A59390"/>
<path d="M64.6222 24.1502V32.1662H63.716V25.0041H59.1329V29.378C59.1329 30.0054 59.0458 30.5282 58.8715 30.9464C58.7089 31.353 58.4649 31.6609 58.1396 31.87C57.8143 32.0675 57.4193 32.1662 56.9546 32.1662V31.3298C57.3032 31.3298 57.5994 31.1729 57.8434 30.8593C58.099 30.5456 58.2267 30.0519 58.2267 29.378V24.1502H64.6222Z" fill="#A59390"/>
<path d="M66.7007 28.1582C66.7007 27.345 66.8807 26.6247 67.2409 25.9974C67.601 25.37 68.0889 24.8763 68.7047 24.5161C69.332 24.156 70.0349 23.9759 70.8132 23.9759C71.5916 23.9759 72.2887 24.156 72.9044 24.5161C73.5317 24.8763 74.0255 25.37 74.3856 25.9974C74.7458 26.6247 74.9258 27.345 74.9258 28.1582C74.9258 28.9598 74.7458 29.6801 74.3856 30.3191C74.0255 30.9464 73.5317 31.4401 72.9044 31.8003C72.2887 32.1604 71.5916 32.3405 70.8132 32.3405C70.0349 32.3405 69.332 32.1604 68.7047 31.8003C68.0889 31.4401 67.601 30.9464 67.2409 30.3191C66.8807 29.6801 66.7007 28.9598 66.7007 28.1582ZM67.6242 28.1582C67.6242 28.8088 67.7637 29.3838 68.0425 29.8834C68.3213 30.3829 68.6989 30.7779 69.1752 31.0684C69.6631 31.3472 70.2091 31.4866 70.8132 31.4866C71.4174 31.4866 71.9576 31.3472 72.4339 31.0684C72.9218 30.7779 73.3052 30.3829 73.584 29.8834C73.8628 29.3838 74.0022 28.8088 74.0022 28.1582C74.0022 27.5192 73.8628 26.95 73.584 26.4504C73.3052 25.9393 72.9218 25.5443 72.4339 25.2655C71.9576 24.975 71.4174 24.8298 70.8132 24.8298C70.2091 24.8298 69.6631 24.975 69.1752 25.2655C68.6989 25.5443 68.3213 25.9335 68.0425 26.433C67.7637 26.9326 67.6242 27.5076 67.6242 28.1582Z" fill="#A59390"/>
<path d="M77.0501 28.1582C77.0501 28.8088 77.1895 29.3838 77.4683 29.8834C77.7471 30.3829 78.1247 30.7779 78.601 31.0684C79.0889 31.3472 79.6349 31.4866 80.239 31.4866C80.6689 31.4866 81.0697 31.4227 81.4415 31.2949C81.8132 31.1671 82.1327 31.0045 82.3999 30.807C82.6787 30.5979 82.8762 30.3888 82.9924 30.1796V31.3123C82.7484 31.6028 82.3709 31.8468 81.8597 32.0443C81.3601 32.2417 80.8199 32.3405 80.239 32.3405C79.4607 32.3405 78.7636 32.1604 78.1479 31.8003C77.5322 31.4401 77.0384 30.9464 76.6667 30.3191C76.3065 29.6801 76.1265 28.9598 76.1265 28.1582C76.1265 27.345 76.3065 26.6247 76.6667 25.9974C77.0384 25.37 77.5322 24.8763 78.1479 24.5161C78.7636 24.156 79.4607 23.9759 80.239 23.9759C80.8199 23.9759 81.3601 24.0805 81.8597 24.2896C82.3709 24.4871 82.7484 24.7252 82.9924 25.0041V26.1368C82.8762 25.916 82.6787 25.7069 82.3999 25.5094C82.1327 25.3119 81.8132 25.1493 81.4415 25.0215C81.0697 24.8937 80.6689 24.8298 80.239 24.8298C79.6349 24.8298 79.0889 24.975 78.601 25.2655C78.1247 25.5443 77.7471 25.9335 77.4683 26.433C77.1895 26.9326 77.0501 27.5076 77.0501 28.1582Z" fill="#A59390"/>
<path d="M85.1104 28.3847V27.6006H91.0701C91.0701 27.0545 90.954 26.5724 90.7216 26.1542C90.4893 25.7243 90.1698 25.3874 89.7632 25.1435C89.3682 24.8995 88.9093 24.7775 88.3865 24.7775C87.8637 24.7775 87.3816 24.8995 86.9401 25.1435C86.4986 25.3874 86.1443 25.7418 85.8771 26.2065C85.6099 26.6595 85.4763 27.1998 85.4763 27.8271L85.4589 28.1408C85.4589 28.8146 85.5809 29.4071 85.8248 29.9183C86.0688 30.4178 86.4057 30.807 86.8356 31.0858C87.277 31.353 87.7824 31.4866 88.3516 31.4866C88.8628 31.4866 89.2927 31.4111 89.6412 31.2601C90.0013 31.0974 90.3034 30.8941 90.5473 30.6502C90.8029 30.3946 91.0178 30.1216 91.1921 29.8311L91.924 30.3016C91.6917 30.6618 91.4245 30.9987 91.1224 31.3123C90.8204 31.6144 90.4428 31.8642 89.9897 32.0617C89.5366 32.2476 88.9557 32.3405 88.2471 32.3405C87.55 32.3405 86.9169 32.1604 86.3476 31.8003C85.79 31.4401 85.3485 30.9406 85.0232 30.3016C84.6979 29.6627 84.5353 28.9424 84.5353 28.1408C84.5353 27.9549 84.5411 27.7806 84.5527 27.618C84.576 27.4437 84.605 27.2695 84.6399 27.0952C84.7793 26.4795 85.0174 25.9393 85.3543 25.4746C85.6912 24.9982 86.1211 24.6323 86.6439 24.3767C87.1667 24.1095 87.7475 23.9759 88.3865 23.9759C89.0835 23.9759 89.7109 24.1444 90.2685 24.4813C90.8262 24.8066 91.2618 25.2655 91.5755 25.8579C91.9008 26.4504 92.0634 27.1475 92.0634 27.9491C92.0634 28.0188 92.0576 28.0943 92.046 28.1756C92.046 28.2453 92.0402 28.315 92.0286 28.3847H85.1104Z" fill="#A59390"/>
<path d="M95.0197 36H94.1136V24.1502H95.0197V36ZM101.868 28.1582C101.868 29.0179 101.694 29.7614 101.345 30.3888C101.009 31.0161 100.544 31.4982 99.9514 31.8351C99.3705 32.172 98.7199 32.3405 97.9996 32.3405C97.3258 32.3405 96.7333 32.1604 96.2222 31.8003C95.711 31.4285 95.3102 30.929 95.0197 30.3016C94.7409 29.6627 94.6015 28.9482 94.6015 28.1582C94.6015 27.3566 94.7409 26.6421 95.0197 26.0148C95.3102 25.3874 95.711 24.8937 96.2222 24.5336C96.7333 24.1618 97.3258 23.9759 97.9996 23.9759C98.7199 23.9759 99.3705 24.1444 99.9514 24.4813C100.544 24.8182 101.009 25.3003 101.345 25.9276C101.694 26.5434 101.868 27.2869 101.868 28.1582ZM100.962 28.1582C100.962 27.4612 100.823 26.8629 100.544 26.3633C100.265 25.8638 99.8933 25.4862 99.4286 25.2306C98.9639 24.9634 98.4469 24.8298 97.8776 24.8298C97.3897 24.8298 96.925 24.975 96.4836 25.2655C96.0421 25.5559 95.6878 25.9509 95.4206 26.4504C95.1534 26.95 95.0197 27.5192 95.0197 28.1582C95.0197 28.7972 95.1534 29.3664 95.4206 29.866C95.6878 30.3655 96.0421 30.7605 96.4836 31.051C96.925 31.3414 97.3897 31.4866 97.8776 31.4866C98.4469 31.4866 98.9639 31.3588 99.4286 31.1032C99.8933 30.836 100.265 30.4527 100.544 29.9531C100.823 29.4536 100.962 28.8553 100.962 28.1582Z" fill="#A59390"/>
<path d="M107.558 25.5268L104.648 31.7829H103.637L107.558 23.5403L111.479 31.7829H110.468L107.558 25.5268ZM111.618 32.1662H103.55V33.7346H102.592V31.3123H112.525V33.7346H111.618V32.1662Z" fill="#A59390"/>
<path d="M120.842 24.9344L114.708 32.7761L114.795 31.3821L120.929 23.5403L120.842 24.9344ZM115.614 24.1502V31.4866L114.708 32.7761V24.1502H115.614ZM120.929 23.5403V32.1662H120.023V24.8298L120.929 23.5403Z" fill="#A59390"/>
<path d="M124.25 32.1662H123.239L126.028 28.315H127.038L124.25 32.1662ZM129.373 32.1662H128.467V24.1502H129.373V32.1662ZM128.833 28.1582V28.9598H126.55C126.004 28.9598 125.505 28.8785 125.052 28.7158C124.61 28.5532 124.262 28.2976 124.006 27.9491C123.751 27.5889 123.623 27.1242 123.623 26.555C123.623 25.9741 123.751 25.5094 124.006 25.1609C124.262 24.8124 124.61 24.5568 125.052 24.3941C125.505 24.2315 126.004 24.1502 126.55 24.1502H128.833V24.9518H126.55C126.144 24.9518 125.789 25.0099 125.487 25.126C125.185 25.2306 124.947 25.3991 124.773 25.6314C124.61 25.8638 124.529 26.1716 124.529 26.555C124.529 26.9268 124.61 27.2346 124.773 27.4786C124.947 27.7109 125.185 27.8852 125.487 28.0014C125.789 28.1059 126.144 28.1582 126.55 28.1582H128.833Z" fill="#A59390"/>
<path d="M37.1929 21.4424V0H47.9063V21.4424H45.2358V2.68619H39.8634V21.4424H37.1929Z" fill="#FF695A"/>
<path d="M52.4618 26.7991V24.1129H55.148C55.8811 24.1129 56.5094 23.8511 57.033 23.3275C57.5671 22.8038 57.8342 22.1755 57.8342 21.4424V20.7512C57.0278 21.212 56.1324 21.4424 55.148 21.4424C53.6714 21.4424 52.4094 20.9188 51.3622 19.8715C50.3149 18.8243 49.7913 17.5624 49.7913 16.0857V0H52.4618V16.0857C52.4618 16.8293 52.7236 17.4629 53.2472 17.9865C53.7708 18.5101 54.4044 18.7719 55.148 18.7719C55.8811 18.7719 56.5094 18.5101 57.033 17.9865C57.5671 17.4629 57.8342 16.8293 57.8342 16.0857V0H60.5047V21.4424C60.5047 22.919 59.981 24.181 58.9338 25.2282C57.8865 26.2755 56.6246 26.7991 55.148 26.7991H52.4618Z" fill="#FF695A"/>
<path d="M62.3897 21.4424V0H65.0602V8.04287H70.4326V0H73.1031V21.4424H70.4326V10.7291H65.0602V21.4424H62.3897Z" fill="#FF695A"/>
<path d="M74.9881 21.4424V0H77.6586V5.35668L88.3876 0V2.68619L81.6015 6.07928C82.9315 6.6029 84.1463 7.41452 85.2459 8.51413C87.3404 10.6086 88.3876 13.1325 88.3876 16.0857V21.4424H85.7014V16.0857C85.7014 13.8656 84.916 11.97 83.3451 10.3992C81.7743 8.8283 79.8787 8.04287 77.6586 8.04287V21.4424H74.9881Z" fill="#FF695A"/>
<path d="M92.9275 21.4424V2.68619H90.257V0H98.2998V2.68619H95.6137V21.4424H92.9275Z" fill="#FF695A"/>
</svg>
