<svg width="28" height="28" viewBox="0 0 28 28" fill="none" xmlns="http://www.w3.org/2000/svg">
<path d="M7 22.1666H10.5V16.3333C10.5 16.0027 10.612 15.7258 10.836 15.5026C11.06 15.2794 11.3369 15.1674 11.6667 15.1666H16.3333C16.6639 15.1666 16.9412 15.2786 17.1652 15.5026C17.3892 15.7266 17.5008 16.0035 17.5 16.3333V22.1666H21V11.6666L14 6.41659L7 11.6666V22.1666ZM4.66667 22.1666V11.6666C4.66667 11.2971 4.7495 10.9471 4.91517 10.6166C5.08083 10.286 5.30911 10.0138 5.6 9.79992L12.6 4.54992C13.0083 4.23881 13.475 4.08325 14 4.08325C14.525 4.08325 14.9917 4.23881 15.4 4.54992L22.4 9.79992C22.6917 10.0138 22.9203 10.286 23.086 10.6166C23.2517 10.9471 23.3341 11.2971 23.3333 11.6666V22.1666C23.3333 22.8083 23.1047 23.3578 22.6473 23.8151C22.19 24.2724 21.6409 24.5007 21 24.4999H16.3333C16.0028 24.4999 15.7259 24.3879 15.5027 24.1639C15.2794 23.9399 15.1674 23.663 15.1667 23.3333V17.4999H12.8333V23.3333C12.8333 23.6638 12.7213 23.9411 12.4973 24.1651C12.2733 24.3891 11.9964 24.5007 11.6667 24.4999H7C6.35833 24.4999 5.80922 24.2716 5.35267 23.8151C4.89611 23.3585 4.66745 22.809 4.66667 22.1666Z" fill="white"/>
</svg>
