<svg width="25" height="24" viewBox="0 0 25 24" fill="none" xmlns="http://www.w3.org/2000/svg">
<path d="M12.5 15.3C12.8117 15.3 13.0731 15.1944 13.2843 14.9832C13.4955 14.772 13.6007 14.5109 13.6 14.2C13.5993 13.8891 13.4937 13.628 13.2832 13.4168C13.0727 13.2056 12.8117 13.1 12.5 13.1C12.1883 13.1 11.9273 13.2056 11.7168 13.4168C11.5063 13.628 11.4007 13.8891 11.4 14.2C11.3993 14.5109 11.5049 14.7724 11.7168 14.9843C11.9287 15.1962 12.1898 15.3015 12.5 15.3ZM11.4 10.9H13.6V4.3H11.4V10.9ZM1.5 23V3.2C1.5 2.595 1.7156 2.07727 2.1468 1.6468C2.578 1.21633 3.09573 1.00073 3.7 1H21.3C21.905 1 22.4231 1.2156 22.8543 1.6468C23.2855 2.078 23.5007 2.59573 23.5 3.2V16.4C23.5 17.005 23.2848 17.5231 22.8543 17.9543C22.4238 18.3855 21.9057 18.6007 21.3 18.6H5.9L1.5 23ZM4.965 16.4H21.3V3.2H3.7V17.6375L4.965 16.4Z" fill="white"/>
</svg>
