<svg width="24" height="24" viewBox="0 0 24 24" fill="none" xmlns="http://www.w3.org/2000/svg">
<path d="M5 21C4.45 21 3.97933 20.8043 3.588 20.413C3.19667 20.0217 3.00067 19.5507 3 19V5C3 4.45 3.196 3.97933 3.588 3.588C3.98 3.19667 4.45067 3.00067 5 3H15.175C15.4417 3 15.696 3.05 15.938 3.15C16.18 3.25 16.3923 3.39167 16.575 3.575L20.425 7.425C20.6083 7.60833 20.75 7.821 20.85 8.063C20.95 8.305 21 8.559 21 8.825V19C21 19.55 20.8043 20.021 20.413 20.413C20.0217 20.805 19.5507 21.0007 19 21H5ZM5 19H19V9H16C15.7167 9 15.4793 8.904 15.288 8.712C15.0967 8.52 15.0007 8.28267 15 8V5H5V19ZM16 17C16.2833 17 16.521 16.904 16.713 16.712C16.905 16.52 17.0007 16.2827 17 16C16.9993 15.7173 16.9033 15.48 16.712 15.288C16.5207 15.096 16.2833 15 16 15H8C7.71667 15 7.47933 15.096 7.288 15.288C7.09667 15.48 7.00067 15.7173 7 16C6.99933 16.2827 7.09533 16.5203 7.288 16.713C7.48067 16.9057 7.718 17.0013 8 17H16ZM11 9C11.2833 9 11.521 8.904 11.713 8.712C11.905 8.52 12.0007 8.28267 12 8C11.9993 7.71733 11.9033 7.48 11.712 7.288C11.5207 7.096 11.2833 7 11 7H8C7.71667 7 7.47933 7.096 7.288 7.288C7.09667 7.48 7.00067 7.71733 7 8C6.99933 8.28267 7.09533 8.52033 7.288 8.713C7.48067 8.90567 7.718 9.00133 8 9H11ZM16 13C16.2833 13 16.521 12.904 16.713 12.712C16.905 12.52 17.0007 12.2827 17 12C16.9993 11.7173 16.9033 11.48 16.712 11.288C16.5207 11.096 16.2833 11 16 11H8C7.71667 11 7.47933 11.096 7.288 11.288C7.09667 11.48 7.00067 11.7173 7 12C6.99933 12.2827 7.09533 12.5203 7.288 12.713C7.48067 12.9057 7.718 13.0013 8 13H16Z" fill="white"/>
</svg>
